<svg width="21" height="21" viewBox="0 0 21 21" fill="none" xmlns="http://www.w3.org/2000/svg">
<path d="M20.6822 4.64C20.6294 4.57663 20.5633 4.52563 20.4886 4.49064C20.4139 4.45565 20.3325 4.4375 20.25 4.4375H4.96875L4.48406 1.76563C4.42915 1.46304 4.26973 1.18935 4.03362 0.992309C3.79751 0.795268 3.49971 0.68739 3.19219 0.6875H1.5C1.35082 0.6875 1.20774 0.746763 1.10225 0.852252C0.996763 0.957742 0.9375 1.10082 0.9375 1.25C0.9375 1.39918 0.996763 1.54226 1.10225 1.64775C1.20774 1.75324 1.35082 1.8125 1.5 1.8125H3.1875C3.2319 1.81178 3.27511 1.82683 3.30945 1.85499C3.34378 1.88314 3.36701 1.92257 3.375 1.96625L5.76656 15.1194C5.84242 15.5389 6.04686 15.9246 6.35156 16.2228C5.98362 16.5171 5.70886 16.9117 5.56053 17.3589C5.41219 17.8061 5.39664 18.2867 5.51576 18.7426C5.63489 19.1984 5.88357 19.61 6.23172 19.9275C6.57987 20.2449 7.01257 20.4547 7.47744 20.5313C7.94232 20.608 8.41946 20.5483 8.85111 20.3594C9.28276 20.1706 9.65043 19.8607 9.90961 19.4672C10.1688 19.0738 10.3084 18.6136 10.3115 18.1425C10.3146 17.6713 10.1811 17.2094 9.92719 16.8125H14.8228C14.5313 17.2687 14.4 17.8089 14.4495 18.348C14.499 18.8871 14.7266 19.3943 15.0963 19.7897C15.466 20.1852 15.9569 20.4463 16.4914 20.5318C17.026 20.6174 17.5738 20.5226 18.0485 20.2624C18.5232 20.0022 18.8978 19.5913 19.1131 19.0947C19.3285 18.598 19.3723 18.0437 19.2378 17.5194C19.1033 16.995 18.7981 16.5303 18.3703 16.1986C17.9424 15.8669 17.4163 15.6871 16.875 15.6875H7.79719C7.57763 15.6875 7.36503 15.6105 7.19644 15.4698C7.02786 15.3292 6.91399 15.1338 6.87469 14.9178L6.53719 13.0625H17.6344C18.1174 13.0626 18.5852 12.8932 18.9561 12.5838C19.327 12.2744 19.5776 11.8446 19.6641 11.3694L20.8031 5.10031C20.8178 5.01941 20.8146 4.93627 20.7937 4.85674C20.7728 4.7772 20.7348 4.70322 20.6822 4.64ZM9.1875 18.125C9.1875 18.3846 9.11052 18.6383 8.9663 18.8542C8.82208 19.07 8.6171 19.2383 8.37727 19.3376C8.13744 19.4369 7.87354 19.4629 7.61894 19.4123C7.36434 19.3616 7.13048 19.2366 6.94692 19.0531C6.76337 18.8695 6.63836 18.6357 6.58772 18.3811C6.53708 18.1265 6.56307 17.8626 6.66241 17.6227C6.76175 17.3829 6.92997 17.1779 7.14581 17.0337C7.36165 16.8895 7.61541 16.8125 7.875 16.8125C8.2231 16.8125 8.55694 16.9508 8.80308 17.1969C9.04922 17.4431 9.1875 17.7769 9.1875 18.125ZM18.1875 18.125C18.1875 18.3846 18.1105 18.6383 17.9663 18.8542C17.8221 19.07 17.6171 19.2383 17.3773 19.3376C17.1374 19.4369 16.8735 19.4629 16.6189 19.4123C16.3643 19.3616 16.1305 19.2366 15.9469 19.0531C15.7634 18.8695 15.6384 18.6357 15.5877 18.3811C15.5371 18.1265 15.5631 17.8626 15.6624 17.6227C15.7617 17.3829 15.93 17.1779 16.1458 17.0337C16.3617 16.8895 16.6154 16.8125 16.875 16.8125C17.2231 16.8125 17.5569 16.9508 17.8031 17.1969C18.0492 17.4431 18.1875 17.7769 18.1875 18.125ZM18.5569 11.1678C18.5176 11.3838 18.4037 11.5792 18.2351 11.7198C18.0665 11.8605 17.8539 11.9375 17.6344 11.9375H6.33281L5.17406 5.5625H19.5759L18.5569 11.1678Z" fill="#EFE7D2"/>
</svg>
