<svg width="18" height="18" viewBox="0 0 18 18" fill="none" xmlns="http://www.w3.org/2000/svg">
<path d="M17.7609 0.767777C17.7529 0.630165 17.6946 0.500295 17.5971 0.402823C17.4997 0.305351 17.3698 0.247064 17.2322 0.239027C10.1653 -0.177223 4.51313 1.94153 2.11219 5.90621C0.477188 8.60528 0.540938 11.7937 2.28 14.925L0.3525 16.8525C0.297235 16.904 0.252909 16.9661 0.222165 17.0351C0.191421 17.1041 0.17489 17.1785 0.173557 17.2541C0.172224 17.3296 0.186118 17.4046 0.214409 17.4747C0.242699 17.5447 0.284808 17.6083 0.338222 17.6617C0.391636 17.7152 0.455261 17.7573 0.525302 17.7856C0.595343 17.8138 0.670365 17.8277 0.745893 17.8264C0.82142 17.8251 0.895905 17.8085 0.964904 17.7778C1.0339 17.7471 1.096 17.7027 1.1475 17.6475L3.075 15.72C4.69406 16.619 6.32813 17.0709 7.90219 17.0709C9.38188 17.0715 10.8328 16.662 12.0938 15.8878C16.0584 13.4868 18.1763 7.83465 17.7609 0.767777ZM11.5116 14.924C9.25406 16.2909 6.57656 16.2712 3.90563 14.8875L12.3984 6.39465C12.4978 6.28802 12.5519 6.14699 12.5493 6.00126C12.5467 5.85553 12.4877 5.7165 12.3847 5.61344C12.2816 5.51038 12.1426 5.45134 11.9968 5.44877C11.8511 5.4462 11.7101 5.50029 11.6034 5.59965L3.11063 14.0943C1.72688 11.4234 1.70438 8.75059 3.07406 6.4884C5.20031 2.97934 10.2581 1.06965 16.6678 1.33684C16.9303 7.74184 15.0206 12.8006 11.5116 14.9259V14.924Z" fill="#EFE7D2"/>
</svg>
