<svg width="119" height="31" viewBox="0 0 119 31" fill="none" xmlns="http://www.w3.org/2000/svg">
<path d="M11.008 4.09198C12.672 4.09198 14.1653 4.41198 15.488 5.05198C16.8107 5.67065 17.9307 6.49198 18.848 7.51598C19.7867 8.51865 20.5013 9.65998 20.992 10.94C21.504 12.22 21.76 13.5213 21.76 14.844C21.76 15.804 21.664 16.6893 21.472 17.5C21.28 18.3106 21.0133 19.0573 20.672 19.74C20.3307 20.4226 19.936 21.052 19.488 21.628C19.0613 22.1826 18.592 22.6946 18.08 23.164L19.136 24.348C19.968 25.116 20.8747 25.7986 21.856 26.396C22.8373 27.0146 23.8293 27.5266 24.832 27.932C25.8347 28.3586 26.8267 28.6786 27.808 28.892C28.7893 29.1053 29.6853 29.212 30.496 29.212C31.2 29.212 31.9467 29.148 32.736 29.02C33.5467 28.892 34.3573 28.7 35.168 28.444C36 28.188 36.8213 27.8466 37.632 27.42C38.4427 27.0146 39.2107 26.524 39.936 25.948L40.128 26.236C39.424 27.004 38.6347 27.676 37.76 28.252C36.8853 28.8493 35.968 29.34 35.008 29.724C34.048 30.108 33.056 30.396 32.032 30.588C31.0293 30.8013 30.0373 30.908 29.056 30.908C28.0747 30.908 27.0933 30.8226 26.112 30.652C25.1307 30.4813 24.1493 30.1933 23.168 29.788C22.1867 29.3826 21.2053 28.828 20.224 28.124C19.2427 27.4413 18.2613 26.5773 17.28 25.532L16.192 24.38C15.8293 24.6146 15.4133 24.828 14.944 25.02C14.496 25.1906 14.016 25.34 13.504 25.468C12.992 25.596 12.4693 25.692 11.936 25.756C11.4027 25.82 10.9013 25.852 10.432 25.852C8.93867 25.852 7.552 25.5533 6.272 24.956C5.01333 24.3373 3.91467 23.5373 2.976 22.556C2.05867 21.5533 1.33333 20.412 0.8 19.132C0.266667 17.852 0 16.54 0 15.196C0 13.8306 0.245333 12.4866 0.736 11.164C1.22667 9.81998 1.94133 8.62531 2.88 7.57998C3.84 6.53465 5.00267 5.69198 6.368 5.05198C7.73333 4.41198 9.28 4.09198 11.008 4.09198ZM10.976 24.732C12.4053 24.668 13.664 24.348 14.752 23.772C15.84 23.1746 16.736 22.428 17.44 21.532C18.1653 20.6146 18.7093 19.612 19.072 18.524C19.4347 17.436 19.616 16.3693 19.616 15.324C19.616 14.1506 19.392 12.9666 18.944 11.772C18.5173 10.556 17.9093 9.46798 17.12 8.50798C16.352 7.52665 15.4133 6.73731 14.304 6.13998C13.1947 5.52131 11.968 5.21198 10.624 5.21198C9.30133 5.21198 8.10667 5.51065 7.04 6.10798C5.99467 6.68398 5.10933 7.43065 4.384 8.34798C3.65867 9.26531 3.104 10.2893 2.72 11.42C2.336 12.5293 2.144 13.628 2.144 14.716C2.144 15.8893 2.35733 17.0733 2.784 18.268C3.232 19.4626 3.85067 20.54 4.64 21.5C5.42933 22.46 6.35733 23.2386 7.424 23.836C8.512 24.4333 9.696 24.732 10.976 24.732Z" fill="#EFE7D2"/>
<path d="M24.9755 4.41198H29.5515V4.73198H29.3915C29.2422 4.73198 29.1035 4.79598 28.9755 4.92398C28.8475 5.03065 28.7408 5.16931 28.6555 5.33998C28.5702 5.48931 28.4955 5.67065 28.4315 5.88398C28.3888 6.07598 28.3675 6.24665 28.3675 6.39598V23.452C28.3675 23.6226 28.3888 23.8146 28.4315 24.028C28.4742 24.22 28.5382 24.4013 28.6235 24.572C28.7302 24.7426 28.8368 24.892 28.9435 25.02C29.0715 25.148 29.2208 25.212 29.3915 25.212H29.5515V25.532H24.9755V25.212H25.1355C25.3062 25.212 25.4555 25.1586 25.5835 25.052C25.7115 24.924 25.8182 24.7746 25.9035 24.604C26.0102 24.412 26.0848 24.22 26.1275 24.028C26.1702 23.8146 26.1915 23.6226 26.1915 23.452V6.39598C26.1915 6.24665 26.1702 6.07598 26.1275 5.88398C26.0848 5.69198 26.0102 5.51065 25.9035 5.33998C25.8182 5.16931 25.7115 5.03065 25.5835 4.92398C25.4555 4.79598 25.3062 4.73198 25.1355 4.73198H24.9755V4.41198Z" fill="#EFE7D2"/>
<path d="M40.7248 25.212H40.8848V25.532H36.3408V25.212H36.5008C36.6714 25.212 36.8208 25.148 36.9488 25.02C37.0768 24.892 37.1834 24.7426 37.2688 24.572C37.3754 24.4013 37.4501 24.22 37.4928 24.028C37.5354 23.8146 37.5568 23.6226 37.5568 23.452V5.59598H33.8447C33.5034 5.59598 33.2047 5.67065 32.9487 5.81998C32.6927 5.96931 32.4794 6.16131 32.3088 6.39598C32.1381 6.60931 32.0101 6.85465 31.9247 7.13198C31.8394 7.38798 31.7968 7.64398 31.7968 7.89998H31.4767V4.41198H45.8448V7.89998H45.5247C45.5247 7.64398 45.4821 7.38798 45.3968 7.13198C45.3114 6.85465 45.1834 6.60931 45.0128 6.39598C44.8421 6.16131 44.6288 5.96931 44.3728 5.81998C44.1168 5.67065 43.8181 5.59598 43.4768 5.59598H39.7008V23.452C39.7008 23.6226 39.7221 23.8146 39.7648 24.028C39.8074 24.22 39.8714 24.4013 39.9568 24.572C40.0634 24.7426 40.1701 24.892 40.2768 25.02C40.4048 25.148 40.5541 25.212 40.7248 25.212Z" fill="#EFE7D2"/>
<path d="M57.1115 5.24398C55.5328 5.24398 54.1568 5.53198 52.9835 6.10798C51.8315 6.66265 50.8715 7.39865 50.1035 8.31598C49.3355 9.21198 48.7595 10.2253 48.3755 11.356C48.0128 12.4866 47.8315 13.6066 47.8315 14.716C47.8315 15.9746 48.0768 17.212 48.5675 18.428C49.0582 19.6226 49.7302 20.6893 50.5835 21.628C51.4582 22.5453 52.4715 23.292 53.6235 23.868C54.7755 24.4226 56.0235 24.7 57.3675 24.7C57.7515 24.7 58.1995 24.6573 58.7115 24.572C59.2448 24.4866 59.7675 24.3266 60.2795 24.092C60.7915 23.836 61.2608 23.484 61.6875 23.036C62.1355 22.588 62.4768 22.0013 62.7115 21.276H63.0315V24.828C62.7115 24.828 62.3702 24.8706 62.0075 24.956C61.6662 25.0413 61.2822 25.1373 60.8555 25.244C60.3008 25.3933 59.6822 25.532 58.9995 25.66C58.3382 25.788 57.6342 25.852 56.8875 25.852C55.0315 25.852 53.3995 25.532 51.9915 24.892C50.5835 24.252 49.4102 23.42 48.4715 22.396C47.5328 21.372 46.8288 20.22 46.3595 18.94C45.8902 17.6386 45.6555 16.3266 45.6555 15.004C45.6555 13.6813 45.8902 12.3693 46.3595 11.068C46.8288 9.76665 47.5435 8.60398 48.5035 7.57998C49.4635 6.53465 50.6688 5.69198 52.1195 5.05198C53.5702 4.41198 55.2768 4.09198 57.2395 4.09198C57.9435 4.09198 58.5728 4.15598 59.1275 4.28398C59.7035 4.41198 60.2155 4.53998 60.6635 4.66798C60.9835 4.77465 61.2715 4.85998 61.5275 4.92398C61.8048 4.96665 62.0715 4.98798 62.3275 4.98798V8.53998H62.0075C61.8795 7.87865 61.6448 7.33465 61.3035 6.90798C60.9622 6.45998 60.5568 6.11865 60.0875 5.88398C59.6395 5.64931 59.1488 5.48931 58.6155 5.40398C58.1035 5.29731 57.6022 5.24398 57.1115 5.24398Z" fill="#EFE7D2"/>
<path d="M78.553 25.212H78.713C78.8623 25.212 79.001 25.1586 79.129 25.052C79.257 24.924 79.3637 24.7746 79.449 24.604C79.5557 24.412 79.6303 24.22 79.673 24.028C79.7157 23.8146 79.737 23.6226 79.737 23.452V14.748H69.497V23.452C69.497 23.6226 69.5183 23.8146 69.561 24.028C69.6037 24.22 69.6677 24.4013 69.753 24.572C69.8383 24.7426 69.9343 24.892 70.041 25.02C70.169 25.148 70.3183 25.212 70.489 25.212H70.649V25.532H66.169V25.212H66.329C66.4783 25.212 66.617 25.1586 66.745 25.052C66.873 24.924 66.9797 24.7746 67.065 24.604C67.1717 24.412 67.2463 24.22 67.289 24.028C67.3317 23.8146 67.353 23.6226 67.353 23.452V6.39598C67.353 6.24665 67.3317 6.07598 67.289 5.88398C67.2463 5.69198 67.1823 5.51065 67.097 5.33998C67.0117 5.16931 66.905 5.03065 66.777 4.92398C66.649 4.79598 66.4997 4.73198 66.329 4.73198H66.169V4.41198H70.649V4.73198H70.489C70.3183 4.73198 70.169 4.79598 70.041 4.92398C69.913 5.03065 69.8063 5.16931 69.721 5.33998C69.657 5.51065 69.6037 5.69198 69.561 5.88398C69.5183 6.07598 69.497 6.24665 69.497 6.39598V13.628H79.737V6.39598C79.737 6.24665 79.7157 6.07598 79.673 5.88398C79.6303 5.69198 79.5663 5.51065 79.481 5.33998C79.3957 5.16931 79.289 5.03065 79.161 4.92398C79.033 4.79598 78.8837 4.73198 78.713 4.73198H78.553V4.41198H83.033V4.73198H82.873C82.7023 4.73198 82.553 4.79598 82.425 4.92398C82.297 5.03065 82.1903 5.16931 82.105 5.33998C82.041 5.51065 81.9877 5.69198 81.945 5.88398C81.9023 6.07598 81.881 6.24665 81.881 6.39598V23.452C81.881 23.6226 81.9023 23.8146 81.945 24.028C82.009 24.22 82.0837 24.4013 82.169 24.572C82.2543 24.7426 82.3503 24.892 82.457 25.02C82.585 25.148 82.7237 25.212 82.873 25.212H83.033V25.532H78.553V25.212Z" fill="#EFE7D2"/>
<path d="M85.6913 25.212H85.8512C86.0219 25.212 86.1712 25.1586 86.2992 25.052C86.4272 24.924 86.5339 24.7746 86.6192 24.604C86.7259 24.4333 86.8006 24.252 86.8433 24.06C86.9073 23.868 86.9393 23.6866 86.9393 23.516V6.39598C86.9393 6.24665 86.9073 6.07598 86.8433 5.88398C86.8006 5.69198 86.7259 5.51065 86.6192 5.33998C86.5339 5.16931 86.4272 5.03065 86.2992 4.92398C86.1712 4.79598 86.0219 4.73198 85.8512 4.73198H85.6913V4.41198H98.0113V7.38798H97.6913C97.6486 6.89731 97.4566 6.47065 97.1152 6.10798C96.7739 5.72398 96.2406 5.53198 95.5153 5.53198H89.0833V13.628H94.3952C94.8859 13.628 95.2913 13.4786 95.6113 13.18C95.9526 12.8813 96.1233 12.5293 96.1233 12.124H96.4433V16.124H96.1233C96.1233 15.74 95.9632 15.4093 95.6432 15.132C95.3232 14.8546 94.9072 14.716 94.3952 14.716H89.0833V24.412H96.0912C96.4966 24.412 96.8486 24.316 97.1473 24.124C97.4459 23.932 97.6913 23.708 97.8833 23.452C98.0966 23.1746 98.2459 22.8866 98.3313 22.588C98.4379 22.268 98.4912 22.0013 98.4912 21.788H98.8112V25.532H85.6913V25.212Z" fill="#EFE7D2"/>
<path d="M104.583 25.212H104.743V25.532H101.19V25.212H101.351C101.5 25.212 101.639 25.148 101.767 25.02C101.916 24.892 102.033 24.7426 102.118 24.572C102.204 24.4013 102.268 24.22 102.311 24.028C102.375 23.8146 102.407 23.6226 102.407 23.452V6.39598C102.407 6.24665 102.385 6.07598 102.342 5.88398C102.321 5.69198 102.268 5.51065 102.183 5.33998C102.097 5.16931 101.98 5.03065 101.83 4.92398C101.681 4.79598 101.5 4.73198 101.286 4.73198H101.127V4.41198H104.359L115.975 22.716V6.39598C115.975 6.24665 115.943 6.07598 115.879 5.88398C115.836 5.69198 115.761 5.51065 115.655 5.33998C115.569 5.16931 115.463 5.03065 115.335 4.92398C115.207 4.79598 115.057 4.73198 114.887 4.73198H114.727V4.41198H118.311V4.73198H118.15C117.98 4.73198 117.831 4.79598 117.702 4.92398C117.574 5.03065 117.457 5.16931 117.351 5.33998C117.265 5.51065 117.201 5.69198 117.159 5.88398C117.116 6.07598 117.094 6.24665 117.094 6.39598V25.532H115.111L103.527 7.16398V23.452C103.527 23.6226 103.548 23.8146 103.59 24.028C103.633 24.22 103.697 24.4013 103.783 24.572C103.889 24.7426 104.006 24.892 104.134 25.02C104.262 25.148 104.412 25.212 104.583 25.212Z" fill="#EFE7D2"/>
</svg>
